<svg xmlns="http://www.w3.org/2000/svg" width="512" height="512" viewBox="0 0 189.878 189.879" style="enable-background:new 0 0 189.878 189.879" xml:space="preserve"><path d="M172.297 167.163c-16.278-14.512-34.245-26.861-50.244-41.937-15.217-14.339-30.257-29.312-48.297-40.104a2.32 2.32 0 0 0-.093-.621c3.393-6.844.391-17.533-4.352-23.717-11.618-15.145-32.086-28.927-50.366-34.477-1.765-.536-3.186.022-4.123 1.055-.327.074-.645.214-.909.496a16.203 16.203 0 0 0-3.548 5.894c-.771-.009-1.55.37-1.765 1.242-5.381 21.858-5.308 44.762-.934 66.814 4.085 20.596 12.927 48.364-6.777 63.592-2.042 1.578-.217 4.717 1.97 4.757 45.315.826 59.72-41.789 69.466-78.942 14.522 16.086 30.528 30.917 46.561 45.456 14.489 13.139 31.064 29.932 49.702 36.864 3.583 1.333 6.483-3.898 3.709-6.372zM16.638 34.678c13.018 3.898 25.515 12.66 35.892 21.176 5.459 4.48 10.553 9.611 13.843 15.911 2.797 5.357.046 11.102-6.135 10.207-16.769-2.427-44.828-27.706-43.879-47.409.096.036.177.084.279.115zM9.942 164.315c9.109-10.857 9.895-25.339 7.742-39.895-1.804-12.196-5.034-24.146-6.407-36.405-1.498-13.379-1.193-26.782-.22-40.157 2.435 6.872 7.149 13.518 11.077 18.386 9.128 11.312 25.077 25.632 40.789 24.618a16.85 16.85 0 0 0 3.856-.681c-11.54 31.857-18.14 70.65-56.837 74.134zM173.56 34.219c-8.254-2.616-17.116-.511-24.53 3.708 1.307-2.488 2.45-5.022 3.208-7.634 1.203-4.146-3.688-6.059-6.567-3.823-1.195.927-2.279 2.032-3.313 3.207-2.518-12.439-20.563-18.671-32.525-8.35-5.471 4.72-8.112 11.851-5.344 18.776 1.617 4.044 4.794 6.501 8.514 7.837-5.922 3.218-10.734 8.35-7.723 15.193 3.638 8.264 12.81 6.22 19.96 2.349a186.66 186.66 0 0 0-1.817 6.251c-1.401 5.148 5.826 6.775 7.749 2.136.457-1.103.968-2.177 1.437-3.274.695 8.173 3.119 19.981 10.869 16.969 6.354-2.469 7.373-9.725 6.766-16.603 13.332 11.283 36.39 8.319 39.405-12.456 1.641-11.319-5.657-20.98-16.089-24.286zm-46.212 24.926c-5.239 3.264-13.695 7.906-17.207 2.158-4.072-6.663 10.439-11.481 14.06-12.314 2.639-.607 2.073-4.851-.64-4.724-10.004.468-20.257-7.153-12.034-17.126 3.908-4.739 11.271-6.072 16.985-5.079 7.117 1.237 10.037 7.062 9.816 13.157-2.449 4.017-4.446 8.422-6.252 12.306-1.765 3.795-3.325 7.68-4.728 11.622zm20.8 1.177c-1.298-2.66-5.306-.753-4.633 1.953 1.474 5.933 2.83 12.873-.078 18.622-2.738 5.413-6.252-16.527-6.271-16.808-.058-.813-.423-1.399-.92-1.786a325.619 325.619 0 0 1 6.036-12.397c1.327-2.578 2.878-5.151 4.39-7.756 13.866-7.491 35.739-5.596 37.521 13.229 2.037 21.506-28.757 19.875-36.045 4.943z"/></svg>