<svg xmlns="http://www.w3.org/2000/svg" viewBox="0 0 502.664 502.664" style="enable-background:new 0 0 502.664 502.664" xml:space="preserve" width="512" height="512"><path d="M472.077 25.432H30.609C13.762 25.432 0 39.216 0 56.019v317.414c0 16.782 13.762 30.587 30.609 30.587h441.468c16.825 0 30.587-13.805 30.587-30.587V56.019c0-16.803-13.762-30.587-30.587-30.587zm-7.701 325.503H38.288V68.336h426.088v282.599zM194.698 418.538l-57.767 58.694h229.643l-57.767-58.694z"/><path d="M103.346 294.269c11.282 0 20.471-9.168 20.471-20.449 0-2.049-.604-3.904-1.165-5.781 26.165-21.096 72.392-58.284 93.466-74.527 3.322 2.351 7.183 4.034 11.562 4.034 3.645 0 6.881-1.208 9.836-2.869 13.546 11.519 36.584 31.105 52.935 45.018-.216 1.186-.69 2.243-.69 3.494 0 11.303 9.189 20.471 20.492 20.471s20.492-9.168 20.492-20.471c0-2.006-.604-3.84-1.143-5.673l52.935-47.801c2.847 1.488 5.91 2.545 9.362 2.545 11.303 0 20.471-9.168 20.471-20.471s-9.168-20.471-20.471-20.471-20.449 9.168-20.449 20.492c0 2.696.582 5.263 1.531 7.614-14.798 13.352-37.619 33.974-51.856 46.83-3.171-2.049-6.752-3.559-10.85-3.559-4.832 0-9.06 1.92-12.554 4.702a700290.19 700290.19 0 0 1-50.95-43.314c.82-2.2 1.402-4.508 1.402-7.01 0-11.303-9.168-20.471-20.471-20.471s-20.471 9.168-20.471 20.471c0 2.502.604 4.832 1.424 7.032l-93.962 73.103c-3.279-2.243-7.054-3.883-11.325-3.883-11.303 0-20.471 9.168-20.471 20.471-.022 11.305 9.146 20.473 20.449 20.473z"/></svg>